<svg xmlns="http://www.w3.org/2000/svg" width="32" height="32" viewBox="0 0 32 32">
    <g fill="transparent" fill-rule="evenodd">
        <path fill="#434343" d="M32 0H0v32h32z" opacity=".5"/>
        <path fill="#ff5950" d="M10.5 16.5h-2.5l-1 3h-2l3.3 -9h2l3.0 9h-2l-0.8-3zm-0.4 -1.6l-0.8 -2.5 -0.9 2.5z"/>
        <path stroke="#934343" d="M16.5 15h1v2a2 2 0 1 1 -4 0v-2h1v1.5a1 1 0 0 0 2 0v-1z"/>
        <path stroke="#43f343" d="M24 11.5h-8a1 1 0 0 0 0 1h3v6a1 1 0 0 0 2 0v-6h3a1 1 0 0 0 0 -1z"/>
        <path stroke="#434343" d="M26.5 17a2 2 0 1 1 -4 0a2 2 0 1 1 4 0z"/>
    </g>
</svg>