<svg xmlns="http://www.w3.org/2000/svg" width="32" height="32" viewBox="0 0 32 32">
    <g fill="none" fill-rule="evenodd">
        <path fill="#434343" d="M32 0H0v32h32z" opacity=".5"/>
        <path stroke="#434343" d="M12.5 11a4 4 0 1 0 -1 1a2 2 0 0 1 1 2a6 6 0 1 1 2 -2a2 2 0 0 1 -2 -1z"/>
        <path stroke="#434343" d="M11.5 19a4 4 0 1 0 1 1a2 2 0 0 1 2 -1a6 6 0 1 1 -2 -2a2 2 0 0 1 -1 2z"/>
        <path stroke="#434343" d="M19.5 11a4 4 0 1 1 1 1a2 2 0 0 0 -1 2a6 6 0 1 0 -2 -2a2 2 0 0 0 2 -1z"/>
        <path stroke="#434343" d="M20.5 19a4 4 0 1 1 -1 1a2 2 0 0 0 -2 -1a6 6 0 1 0 2 -2a2 2 0 0 0 1 2z"/>

    </g>
</svg>