<svg xmlns="http://www.w3.org/2000/svg" width="32" height="32" viewBox="0 0 32 32">
    <g fill="#434343" fill-rule="evenodd">
        <path fill="#434343" d="M32 0H0v32h32z" opacity=".5"/>
        <path fill="#098837" d="M18.5 7l-1.794 -1.794h-3l-2 1.794a1 1 0 0 1 0 -1l.703-1.055a1 1 0 0 1 1 -1h3.5a1 1 0 0 1 1 1l.703 1a1 1 0 0 1 0 1z"/>
        <path fill="#930473" d="M17.9 6.5h-5.5v1h5.394z"/>
        <path fill="#9c535e" d="M4 7h23v1h-23z"/>
        <path fill="#0c535e" d="M13 16h-1v-3h1v3zm3 0h-1v-3h1v3zm3 0h-1v-3h1v3z"/>
        <path fill="#5c035e" d="M9 25h-2a1 1 0 0 1-1-1v-16h1v16h2v1zm16-10h-1v-7h1v7z"/>        
        <path fill="#985950" d="M15.5 23h-2.5l-0.7 2h-1l1-2.8l1.5 -4h1l1.5 4l1 2.8h-1l-.7-2zm-0.3-1l-0.9 -2.5 -0.9 2.5z"/>
        <path fill="#085950" d="M24 24h3v1h-4v-7h1v6zm-5 0h3v1h-4v-7h1v6z"/>
    </g>
</svg>