<svg xmlns="http://www.w3.org/2000/svg" width="32" height="32" viewBox="0 0 32 32">
    <g fill="none" fill-rule="evenodd">
        <path fill="#434343" stroke="#434343" d="M27.01 4a11 11 0 0 1 -1 1H3v24h24V4.1a1 1 0 0 1 1 1V29a1 1 0 0 1-1 1H3a1 1 0 0 1-1-1V5a1 1 0 0 1 1-1h15.01z"/>
        <path fill="#939343" stroke="#934343" d="M15 20a2 2 0 0 0 -1 -1a4 4 0 1 0 1 1.5a2 2 0 0 0 -1 0.5a2 2 0 1 1 -1 -1z"/>
        <path fill="#939343" stroke="#934343" d="M15 20v-10h2v10z"/>
        <path fill="#939343" stroke="#934343" d="M17 11l3 2h2v2h-3z"/>
    </g>
</svg>
