<svg xmlns="http://www.w3.org/2000/svg" width="32" height="32" viewBox="0 0 32 32">
    <g fill="none" fill-rule="evenodd">
        <path stroke="#434343" stroke-linecap="square" d="M26 28h-22v-24h24v22a 2 2 0 0 1 -2 0v-20h-20v20h20a 2 2 0 0 1 0 2z"/>
        <path fill="#939343" stroke="#934343" d="M16.5 18a2 2 0 0 0 -1 -1a4 4 0 1 0 1 1.5a2 2 0 0 0 -1 0.5a2 2 0 1 1 -1 -1z"/>
        <path fill="#939343" stroke="#934343" d="M16 18v-10h2v10z"/>
        <path fill="#939343" stroke="#934343" d="M18 9l3 2h2v2h-3z"/>
    </g>
</svg>
