<svg xmlns="http://www.w3.org/2000/svg" width="32" height="32" viewBox="0 0 32 32">
    <g fill="none" fill-rule="evenodd">
        <path fill="" stroke="#434343" d="M27 4a1 1 0 0 1 -1 1h-23v24h24v-24.5a1 1 0 0 1 1 1v23.5a1 1 0 0 1-1 1h-24a1 1 0 0 1-1-1v-24a1 1 0 0 1 1-1h15z"/>
        <path fill="#939343" stroke="#434343" d="M7 11h1a1 1 0 0 0 1 -1h4a1 1 0 0 1 1 1v12a1 1 0 0 1 -1 1a1 1 0 0 0 1 1h2a1 1 0 0 0 1 -1a1 1 0 0 1 -1 -1v-12a1 1 0 0 1 1 -1h4a1 1 0 0 0 1 1h1a1 1 0 0 0 1 -1v-2h-18v2a1 1 0 0 0 1 1z"/>
    </g>
</svg>
