<svg xmlns="http://www.w3.org/2000/svg" width="32" height="32" viewBox="0 0 32 32">
    <g fill="none" fill-rule="evenodd">
        <path stroke="#434343" stroke-linecap="square" d="M26 28h-22v-24h24v22a 2 2 0 0 1 -2 0v-20h-20v20h20a 2 2 0 0 1 0 2z"/>
        <path fill="#939343" stroke="#434343" d="M9 11h1a1 1 0 0 0 1 -1h3a1 1 0 0 1 1 1v11a1 1 0 0 1 -1 1a1 1 0 0 0 1 1h2a1 1 0 0 0 1 -1a1 1 0 0 1 -1 -1v-11a1 1 0 0 1 1 -1h3a1 1 0 0 0 1 1h1a1 1 0 0 0 1 -1v-2h-16v2a1 1 0 0 0 1 1z"/>
    </g>
</svg>
