<?xml version="1.0" encoding="UTF-8"?>
<!DOCTYPE svg PUBLIC "-//W3C//DTD SVG 1.1//EN" "http://www.w3.org/Graphics/SVG/1.1/DTD/svg11.dtd">
<svg display="none" xmlns="http://www.w3.org/2000/svg" xmlns:xlink="http://www.w3.org/1999/xlink">
<defs id="ve-pro-svg-default-icons">
  <symbol id="ic-delete" viewBox="0 0 24 24">
    <path stroke="inherit" fill="inherit" d="M3 6v16h17V6h1v16a1 1 0 0 1-1 1H3a1 1 0 0 1-1-1V6h1zM14.794 3.794L13 2h-3L8.206 3.794A.963.963 0 0 1 8 2.5l.703-1.055A1 1 0 0 1 9.535 1h3.93a1 1 0 0 1 .832.445L15 2.5a.965.965 0 0 1-.206 1.294zM14.197 4H8.803h5.394z"/>
    <path stroke="inherit" fill="inherit" d="M0 3h23v1H0zM8 10h1v6H8v-6zm3 0h1v6h-1v-6zm3 0h1v6h-1v-6z"/>
  </symbol>
  <symbol id="ic-filter" viewBox="0 0 24 24">
    <path d="M0 0h24v24H0z" fill="none" stroke="none" />
    <path stroke="inherit" fill="inherit" d="M12 7v1H2V7h10zm6 0h4v1h-4V7zM12 16v1h10v-1H12zm-6 0H2v1h4v-1z"/>
    <path stroke="inherit" fill="inherit" d="M8.5 20a3.5 3.5 0 1 1 0-7 3.5 3.5 0 0 1 0 7zm0-1a2.5 2.5 0 1 0 0-5 2.5 2.5 0 0 0 0 5zM15.5 11a3.5 3.5 0 1 1 0-7 3.5 3.5 0 0 1 0 7zm0-1a2.5 2.5 0 1 0 0-5 2.5 2.5 0 0 0 0 5z"/>
  </symbol>
  <symbol id="ic-media" viewBox="0 0 32 32">
    <path fill="inherit" stroke="inherit" stroke-linecap="round" stroke-linejoin="round" d="M17.314 18.867l1.951-2.53 4 5.184h-17l6.5-8.84 4.549 6.186z"/>
    <path stroke="inherit" fill="inherit" d="M27.01 4a11 11 0 0 1 -1 1H3v24h24V4.1a1 1 0 0 1 1 1V29a1 1 0 0 1-1 1H3a1 1 0 0 1-1-1V5a1 1 0 0 1 1-1h15.01z"/>
  </symbol>
  <symbol id="ic-make" viewBox="0 0 32 32">
    <path stroke="inherit" fill="inherit" d="M5 6a2 2 0 0 0 -1 1L22 24a2 2 0 0 1 1 -1L6 7z"/>
    <path stroke="inherit" fill="inherit" d="M22 24a2 2 0 0 1 1 -1a3 3 0 1 1 -1 1.5a2 2 0 0 1 1 0.5a2 2 0 1 0 1 -1z"/>
    <path stroke="inherit" fill="inherit" d="M25 6a2 2 0 0 1 1 1L10 24a2 2 0 0 0 -1 -1L25 6z"/>
    <path stroke="inherit" fill="inherit" d="M10 24a2 2 0 0 0 -1 -1a3 3 0 1 0 1 1.5a2 2 0 0 0 -1 0.5a2 2 0 1 1 -1 -1z"/>
  </symbol>
  <symbol id="ic-imitate" viewBox="0 0 32 32">
    <path fill="inherit" stroke="inherit" d="M27.01 4a11 11 0 0 1 -1 1H3v24h24V4.1a1 1 0 0 1 1 1V29a1 1 0 0 1-1 1H3a1 1 0 0 1-1-1V5a1 1 0 0 1 1-1h15.01z"/>
    <path fill="inherit" stroke="inherit" stroke-linecap="round" stroke-linejoin="round" d="M 11 16l0 10L21 21z" />
    <path fill="inherit" stroke="inherit" d="M 9.5 4.5l-4.5 8a2 2 0 0 0 2 1L12 4.5z" />
    <path fill="inherit" stroke="inherit" d="M 16 4.5l-4.5 8a2 2 0 0 0 2 1L18.5 4.5z" />
    <path fill="inherit" stroke="inherit" d="M 22.5 4.5l-4.5 8a2 2 0 0 0 2 1L25 4.5z" />
  </symbol>
  <symbol id="ic-transition" viewBox="0 0 32 32">
    <path fill="inherit" stroke="inherit" stroke-linecap="round" stroke-linejoin="round" d="M7.5 22l0-10 17 10l0-10 -17 10z"/>
    <path fill="inherit" stroke="inherit" stroke-linecap="square" d="M27 28h-23.5v-24h24v22a 2 2 0 0 1 -2 0v-20h-20v20h21.5a 2 2 0 0 1 0 2z"/>
  </symbol>
  <symbol id="ic-animation" viewBox="0 0 32 32">
    <path fill="inherit" stroke="inherit"  stroke-linecap="round" stroke-linejoin="round" d="M13 14l0 10l10 -5z" />
    <path fill="inherit" stroke="inherit"  stroke-linecap="round" stroke-linejoin="round" d="M11 11l0 10l10 -5z" />
    <path fill="inherit" stroke="inherit"  stroke-linecap="round" stroke-linejoin="round" d="M9 8l0 10l10 -5z" />
    <path fill="inherit" stroke="inherit" stroke-linecap="square" d="M27 28h-23.5v-24h24v22a 2 2 0 0 1 -2 0v-20h-20v20h21.5a 2 2 0 0 1 0 2z"/>
  </symbol>
  <symbol id="ic-separate" viewBox="0 0 32 32">
    <path fill="inherit" stroke="inherit" d="M17 4a1 1 0 0 1 -1 1H3v24h24V4.1a1 1 0 0 1 1 1V29a1 1 0 0 1-1 1H3a1 1 0 0 1-1-1V5a1 1 0 0 1 1-1h15.01z"/>
    <path fill="inherit" stroke="none" stroke-linecap="round" stroke-linejoin="round" d="M11 12l0 10l10 -5z" />
    <path fill="inherit" stroke="inherit" d="M 17 2.5v4a1 1 0 0 0 1 0l0 -4a1 1 0 0 0 -1 0z" />
    <path fill="inherit" stroke="inherit" d="M 21 2v5a1 1 0 0 0 1 0l0 -5a1 1 0 0 0 -1 0z" />
    <path fill="inherit" stroke="inherit" d="M 25 2.5v4a1 1 0 0 0 1 0l0 -4a1 1 0 0 0 -1 0z" />
  </symbol>
  <symbol id="ic-split" viewBox="0 0 32 32">
    <path stroke="inherit" fill="inherit" d="M32 0H0v32h32z" opacity=".5"/>
    <path fill="inherit" stroke="inherit" d="M3 4h9a1 1 0 0 1 1 1v24a1 1 0 0 1 -1 1h-9a1 1 0 0 1 0 -1h9v-24h-9a1 1 0 0 1 0 -1z"/>
    <path fill="inherit" stroke="inherit" d="M28 4h-9a1 1 0 0 0 -1 1v24a1 1 0 0 0 1 1h9a1 1 0 0 0 0 -1h-9v-24h9a1 1 0 0 0 0 -1z"/>
  </symbol>
  <symbol id="ic-storage" viewBox="0 0 32 32">
    <path fill="inherit" stroke="inherit" stroke-linecap="round" stroke-linejoin="round" d="M17.314 18.867l1.951-2.53 4 5.184h-17l6.5-8.84 4.549 6.186z"/>
    <path stroke="inherit" fill="inherit" d="M27.01 4a11 11 0 0 1 -1 1H3v24h24V4.1a1 1 0 0 1 1 1V29a1 1 0 0 1-1 1H3a1 1 0 0 1-1-1V5a1 1 0 0 1 1-1h15.01z"/>
  </symbol>
  <symbol id="ic-amake" viewBox="0 0 32 32">
    <path fill="inherit" stroke="inherit" stroke-linecap="round" stroke-linejoin="round" d="M17.314 18.867l1.951-2.53 4 5.184h-17l6.5-8.84 4.549 6.186z"/>
    <path stroke="inherit" fill="inherit" d="M27.01 4a11 11 0 0 1 -1 1H3v24h24V4.1a1 1 0 0 1 1 1V29a1 1 0 0 1-1 1H3a1 1 0 0 1-1-1V5a1 1 0 0 1 1-1h15.01z"/>
  </symbol>
  <symbol id="ic-load" viewBox="0 0 32 32">
    <path fill="inherit" d="M14.5 9h1v14h-1z"/>
    <path fill="inherit" d="M8 15.5v1h14v-1z"/>
    <path fill="inherit" d="M15.5 4A12 12 0 1 1 14.5 4a1 1 0 0 1 0 1A11 11 0 1 0 15.5 5a1 1 0 0 1 0 -1z" />
  </symbol>
  <symbol id="ic-back" viewBox="0 0 32 32">
    <path fill="inherit" d="M32 0H0v32h32z" opacity=".5"/>
    <path fill="inherit" d="M7 10h12a6 6 0 1 1 0 12H7v1h12a7 7 0 0 0 0-14H7v1z"/>
    <path stroke="inherit" stroke-linecap="square" d="M9 7L6.5 9.5 9 12"/>
  </symbol>
  <symbol id="ic-check" viewBox="0 0 32 32">
    <path fill="inherit" d="M27.01 4a11 11 0 0 1 -1 1H3v24h24V4.1a1 1 0 0 1 1 1V29a1 1 0 0 1-1 1H3a1 1 0 0 1-1-1V5a1 1 0 0 1 1-1h15.01z"/>
    <path fill="inherit" d="M27 5H3v24h24z" opacity=".5"/>
    <path stroke="inherit" fill="inherit" d="M9 15l4 4l10 -10l2 2l-12 12l-6 -6l2 -2z"/>
  </symbol>

<symbol id="ic-music" viewBox="0 0 32 32">
    <path fill="inherit" stroke="inherit" d="M16.5 18a2 2 0 0 0 -1 -1a4 4 0 1 0 1 1.5a2 2 0 0 0 -1 0.5a2 2 0 1 1 -1 -1z"/>
    <path fill="inherit" stroke="inherit" d="M16 18v-10h2v10z"/>
    <path fill="inherit" stroke="inherit" d="M18 9l3 2h2v2h-3z"/>
    <path fill="inherit" stroke="inherit" stroke-linecap="square" d="M27 28h-23.5v-24h24v22a 2 2 0 0 1 -2 0v-20h-20v20h21.5a 2 2 0 0 1 0 2z"/>
</symbol>
<symbol id="ic-text" viewBox="0 0 32 32">
    <path fill="inherit" stroke="inherit" d="M9 11h1a1 1 0 0 0 1 -1h3a1 1 0 0 1 1 1v11a1 1 0 0 1 -1 1a1 1 0 0 0 1 1h2a1 1 0 0 0 1 -1a1 1 0 0 1 -1 -1v-11a1 1 0 0 1 1 -1h3a1 1 0 0 0 1 1h1a1 1 0 0 0 1 -1v-2h-16v2a1 1 0 0 0 1 1z"/>
    <path fill="inherit" stroke="inherit" stroke-linecap="square" d="M27 28h-23.5v-24h24v22a 2 2 0 0 1 -2 0v-20h-20v20h21.5a 2 2 0 0 1 0 2z"/>
</symbol>
<symbol id="ic-apply" viewBox="0 0 32 32">
    <path fill="inherit" stroke="inherit" d="M9 16l5 5l10 -10a1 1 0 0 0 -1 -1l-9 9l-4 -4a1 1 0 0 0 -1 1z"/>
    <path fill="inherit" stroke="inherit" stroke-linecap="square" d="M27 28h-23.5v-24h24v22a 2 2 0 0 1 -2 0v-20h-20v20h21.5a 2 2 0 0 1 0 2z"/>
</symbol>
<symbol id="ic-play" viewBox="0 0 32 32">
    <path fill="inherit" d="M32 0H0v32h32z" opacity=".5"/>
    <path fill="inherit" stroke="inherit" stroke-linecap="square" d="M 9 15v-6l14 7l-14 6v-6a2 2 0 0 0 -2 0v9l20 -9l-20 -10v9a2 2 0 0 0 2 0z"/>
</symbol>
<symbol id="ic-pause" viewBox="0 0 32 32">
    <path fill="inherit" d="M32 0H0v32h32z" opacity=".5"/>
    <path fill="inherit" stroke="inherit" stroke-linecap="square" d="M 12 9a2 2 0 0 1 2 0v12a2 2 0 0 1 -2 0v-12z"/>
    <path fill="inherit" stroke="inherit" stroke-linecap="square" d="M 18 9a2 2 0 0 1 2 0v12a2 2 0 0 1 -2 0v-12z"/>
</symbol>
<symbol id="ic-deleteall" viewBox="0 0 32 32">
    <path stroke="inherit" fill="inherit" d="M32 0H0v32h32z" opacity=".5"/>
    <path stroke="inherit" fill="inherit" d="M18.5 7.5l-1.794 -1.794h-3l-2 1.794a1 1 0 0 1 0 -1l.703-1.055a1 1 0 0 1 1 -1h3.5a1 1 0 0 1 1 1l.703 1a1 1 0 0 1 0 1z"/>
    <path stroke="inherit" fill="inherit" d="M17.9 7h-5.5v1h5.394z"/>
    <path stroke="inherit" fill="inherit" d="M4 7.5h23v1h-23z"/>
    <path stroke="inherit" fill="inherit" d="M13 16.5h-1v-3h1v3zm3 0h-1v-3h1v3zm3 0h-1v-3h1v3z"/>
    <path stroke="inherit" fill="inherit" d="M9 25.5h-2a1 1 0 0 1-1-1v-16h1v16h2v1zm16-10h-1v-7h1v7z"/>        
    <path stroke="inherit" fill="inherit" d="M15.5 23.5h-2.5l-0.7 2h-1l1-2.8l1.5 -4h1l1.5 4l1 2.8h-1l-.7-2zm-0.3-1l-0.9 -2.5 -0.9 2.5z"/>
    <path stroke="inherit" fill="inherit" d="M24 24.5h3v1h-4v-7h1v6zm-5 0h3v1h-4v-7h1v6z"/>
</symbol>
<symbol id="ic-centers" viewBox="0 0 32 32">
    <path stroke="inherit" fill="inherit" d="M32 0H0v32h32z" opacity=".5"/>
    <path stroke="inherit" fill="inherit" d="M12.5 11a4 4 0 1 0 -1 1a2 2 0 0 1 1 2a6 6 0 1 1 2 -2a2 2 0 0 1 -2 -1z"/>
    <path stroke="inherit" fill="inherit" d="M11.5 19a4 4 0 1 0 1 1a2 2 0 0 1 2 -1a6 6 0 1 1 -2 -2a2 2 0 0 1 -1 2z"/>
    <path stroke="inherit" fill="inherit" d="M19.5 11a4 4 0 1 1 1 1a2 2 0 0 0 -1 2a6 6 0 1 0 -2 -2a2 2 0 0 0 2 -1z"/>
    <path stroke="inherit" fill="inherit" d="M20.5 19a4 4 0 1 1 -1 1a2 2 0 0 0 -2 -1a6 6 0 1 0 2 -2a2 2 0 0 0 1 2z"/>
</symbol>
<symbol id="ic-uinfo" viewBox="0 0 32 32">
    <path stroke="inherit" fill="inherit" d="M32 0H0v32h32z" opacity=".5"/>
    <path stroke="inherit" fill="inherit" d="M16 15a4 4 0 1 0 -1 0a2 2 0 0 1 -1 2a6 6 0 1 1 3 0a2 2 0 0 1 -1 -2z"/>
    <path stroke="inherit" fill="inherit" d="M16.5 19a8 8 0 0 1 8 4a2 2 0 0 1 -1 2a16 16 0 0 0 -16 0a2 2 0 0 1 -1 -2a8 8 0 0 1 8 -4z"/>
</symbol>
<symbol id="ic-help" viewBox="0 0 32 32">
    <path stroke="inherit" fill="inherit" d="M32 0H0v32h32z" opacity=".5"/>
    <path stroke="inherit" fill="inherit" d="M12 13a4 4 0 1 1 4 2a2 2 0 0 0 -1 2v2a2 2 0 0 0 2 0v-1a2 2 0 0 1 1 -1a7 7 0 1 0 -9 -8a7 7 0 0 0 0.2 4a2 2 0 0 0 2 0z"/>
    <path stroke="inherit" fill="inherit" d="M16 22a2 2 0 1 1 -1 0a2 2 0 0 0 -1 -2a4 4 0 1 0 3 0a2 2 0 0 0 -1 2z"/>
</symbol>
<symbol id="ic-auto" viewBox="0 0 32 32">
    <path stroke="inherit" fill="inherit" d="M32 0H0v32h32z" opacity=".5"/>
    <path stroke="inherit" fill="inherit" d="M10.5 16.5h-2.5l-1 3h-2l3.3 -9h2l3.0 9h-2l-0.8-3zm-0.4 -1.6l-0.8 -2.5 -0.9 2.5z"/>
    <path stroke="inherit" fill="inherit" d="M16.5 15h1v2a2 2 0 1 1 -4 0v-2h1v1.5a1 1 0 0 0 2 0v-1z"/>
    <path stroke="inherit" fill="inherit" d="M24 11.5h-8a1 1 0 0 0 0 1h3v6a1 1 0 0 0 2 0v-6h3a1 1 0 0 0 0 -1z"/>
    <path stroke="inherit" fill="inherit" d="M26.5 17a2 2 0 1 1 -4 0a2 2 0 1 1 4 0z"/>
</symbol>
<symbol id="ic-scenesetting" viewBox="0 0 32 32">
    <path stroke="inherit" fill="inherit" stroke-linecap="square" d="M23 7l-16 16a2 2 0 0 0 2 2l16 -16a2 2 0 0 0 -2 -2z"/>
    <path stroke="inherit" fill="inherit" stroke-linecap="square" d="M13 7l-6 6a2 2 0 0 0 2 2l6 -6a2 2 0 0 0 -2 -2z"/>
    <path stroke="inherit" fill="inherit" stroke-linecap="square" d="M23 17l-6 6a2 2 0 0 0 2 2l6 -6a2 2 0 0 0 -2 -2z"/>
    <path fill="inherit" stroke="inherit" stroke-linecap="square" d="M27 28h-23.5v-24h24v22a 2 2 0 0 1 -2 0v-20h-20v20h21.5a 2 2 0 0 1 0 2z"/>
</symbol>
<symbol id="ic-foregroundeffect" viewBox="0 0 32 32">
    <path stroke="inherit" fill="inherit" stroke-linecap="square" d="M23 7l-4 4a2 2 0 0 0 2 2l4 -4a2 2 0 0 0 -2 -2z"/>
    <path stroke="inherit" fill="inherit" stroke-linecap="square" d="M11 19l-4 4a2 2 0 0 0 2 2l4 -4a2 2 0 0 0 -2 -2z"/>
    <path stroke="inherit" fill="inherit" stroke-linecap="square" d="M13 7l-6 6a2 2 0 0 0 2 2l6 -6a2 2 0 0 0 -2 -2z"/>
    <path stroke="inherit" fill="inherit" stroke-linecap="square" d="M23 17l-2 2a2 2 0 0 0 2 2l2 -2a2 2 0 0 0 -2 -2z"/>
    <path stroke="inherit" fill="inherit" stroke-linecap="square" d="M18 22l-2 2a2 2 0 0 0 2 2l2 -2a2 2 0 0 0 -2 -2z"/>
    <path stroke="inherit" fill="inherit" stroke-linecap="square" d="M27 26l-6 -6a2 2 0 0 0 -2 2l6 6a2 2 0 0 0 2 -2z"/>
    <path stroke="inherit" fill="inherit" stroke-linecap="square" d="M19 20l-1 -7l-4 6l7 -3l-7 -1l5 5z"/>
    <path stroke="inherit" fill="inherit" stroke-linecap="square" d="M20 28h-16v-24h24v18a 2 2 0 0 1 -2 0v-16h-20v20h14a 2 2 0 0 1 0 2z"/>
</symbol>
<symbol id="ic-sceneeffect" viewBox="0 0 32 32">
    <path stroke="inherit" fill="inherit" stroke-linecap="square" d="M27 26l-6 -6a2 2 0 0 0 -2 2l6 6a2 2 0 0 0 2 -2z"/>
    <path stroke="inherit" fill="inherit" stroke-linecap="square" d="M19 20l-1 -7l-4 6l7 -3l-7 -1l5 5z"/>
    <path stroke="inherit" fill="inherit" stroke-linecap="square" d="M7 16l6 -6l2 2a1 1 0 0 1 -1 1l-1 -1l-6 6a1 1 0 0 1 -1 -1z"/>
    <path stroke="inherit" fill="inherit" stroke-linecap="square" d="M25 11l-3 3l-2 -2a1 1 0 0 1 1 -1l1 1l2 -2a1 1 0 0 1 1 1z"/>
    <path stroke="inherit" fill="inherit" stroke-linecap="square" d="M20 28h-16v-24h24v18a 2 2 0 0 1 -2 0v-16h-20v20h14a 2 2 0 0 1 0 2"/>
</symbol>
<symbol id="ic-export" viewBox="0 0 32 32">
    <path stroke="inherit" fill="inherit" d="M32 0H0v32h32z" opacity=".5"/>
    <path stroke="inherit" fill="inherit" stroke-linecap="square" d="M4 14v12h24v-12a2 2 0 0 0 -2 0v10h-20v-10a2 2 0 0 0 -2 0z"/>
    <path stroke="inherit" fill="inherit" stroke-linecap="square" d="M13 18v-4a4 4 0 0 1 4 -4h2v2h-1a 4 4 0 0 0 -2.5 1.5v4.5h-2z"/>
    <path stroke="inherit" fill="inherit" stroke-linecap="square" d="M17 7l4 4l-4 4a1 1 0 0 0 1 1l5 -5l-5 -5a1 1 0 0 0 -1 1z"/>
</symbol>
<symbol id="ic-pip" viewBox="0 0 32 32">
    <path stroke="inherit" fill="inherit" stroke-linecap="square" d="M27.5 28h-23.5v-24h24v22a 2 2 0 0 1 -2 0v-20h-20v20h21.5a 2 2 0 0 1 0 2z"/>
    <path stroke="inherit" fill="inherit" stroke-linecap="round" stroke-linejoin="round" d="M18 19a 4 4 0 1 1 1 -1a2 2 0 0 0 2 1a 6 6 0 1 0 -2 2a 2 2 0 0 0 -1 -2z" />
</symbol>
<symbol id="ic-iupload" viewBox="0 0 32 32">
    <path stroke="inherit" fill="inherit" stroke-linecap="square" d="M27.5 28h-23.5v-24h24v22a 2 2 0 0 1 -2 0v-20h-20v20h21.5a 2 2 0 0 1 0 2z"/>
    <path stroke="inherit" fill="inherit" stroke-linecap="round" stroke-linejoin="round" d="M18.5 15v-6"/>
    <path stroke="inherit" fill="inherit" stroke-linecap="round" stroke-linejoin="round" d="M15.5 12l3 -3l3 3"/>
    <path stroke="inherit" fill="inherit" stroke-linecap="round" stroke-linejoin="round" d="M18.5 19l1.951-2.53 4 5.184h-17l6.5-8.84 4.549 6.186z"/>
</symbol>
<symbol id="ic-mstar" viewBox="0 0 32 32">
    <path stroke="inherit" fill="inherit" stroke-linecap="square" d="M16,4l3.885,-2.49L22,5.08l4.607,-0.314L26.392,10l4.098,2.115L28,16l2.49,3.885L26.392,22l0.213,4.605L22,26.392l-2.115,4.098L16,28l-3.885,2.49L10,26.392l-4.605,0.213L5.608,22l-4.098,-2.115L4,16l-2.49,-3.885L5.608,10l-0.213,-4.605L10,5.608l2.115,-4.098L16,4z"/>
</symbol>
<symbol id="ic-rect" viewBox="0 0 32 32">
    <path stroke="inherit" fill="inherit" stroke-linecap="square" d="M2,2h28v28h-28v-28z"/>
</symbol>
<symbol id="ic-circle" viewBox="0 0 32 32">
    <circle stroke="inherit" fill="inherit" cx="16" cy="16" r="14" />
</symbol>
<symbol id="ic-lock" viewBox="0 0 32 32">
    <path stroke="inherit" fill="inherit" stroke-linecap="square" d="M 11 16v-5a1 1 0 0 1 1 -1h9a1 1 0 0 1 1 1v5h2v-7a1 1 0 0 0 -1 -1h-13a1 1 0 0 0 -1 1v7h2z"/>
    <path stroke="inherit" fill="inherit" stroke-linecap="square" d="M 9 18h-2v8h18v-8h-14v-1a1 1 0 0 1 1 -1h14a1 1 0 0 1 1 1v10a1 1 0 0 1 -1 1h-20a1 1 0 0 1 -1 -1v-10a1 1 0 0 1 1 -1h2a1 1 0 0 1 1 1z"/>
</symbol>
<symbol id="ic-unlock" viewBox="0 0 32 32">
    <path stroke="inherit" fill="inherit" stroke-linecap="square" d="M 11 11v-4a1 1 0 0 1 1 -1h9a1 1 0 0 1 1 1v9h2v-11a1 1 0 0 0 -1 -1h-13a1 1 0 0 0 -1 1v6a1 1 0 0 0 1 1a1 1 0 0 0 1 -1z"/>
    <path stroke="inherit" fill="inherit" stroke-linecap="square" d="M 9 18h-2v8h18v-8h-14v-1a1 1 0 0 1 1 -1h14a1 1 0 0 1 1 1v10a1 1 0 0 1 -1 1h-20a1 1 0 0 1 -1 -1v-10a1 1 0 0 1 1 -1h2a1 1 0 0 1 1 1z"/>
</symbol>
<symbol id="ic-pre" viewBox="0 0 32 32">
    <path stroke="inherit" fill="inherit" stroke-linecap="square" d="M 9 9v13a2 2 0 0 1 -2 0v-13a 2 2 0 0 1 2 0z"/>
    <path stroke="inherit" fill="inherit" stroke-linecap="square" d="M 9.5 15l2 -5a2 2 0 0 1 2 1l-3 4z"/>
    <path stroke="inherit" fill="inherit" stroke-linecap="square" d="M 9.5 16l2 5a2 2 0 0 0 2 -1l-3 -4z"/>
    <path stroke="inherit" fill="inherit" stroke-linecap="square" d="M 11 15.5l1 -1h12a2 2 0 0 1 0 2h-12l-1 -1z"/>
</symbol>
<symbol id="ic-next" viewBox="0 0 32 32">
    <path stroke="inherit" fill="inherit" stroke-linecap="square" d="M25 9v13a2 2 0 0 1 -2 0v-13a 2 2 0 0 1 2 0z"/>
    <path stroke="inherit" fill="inherit" stroke-linecap="square" d="M 22.5 15l-2 -5a2 2 0 0 0 -2 1l3 4z"/>
    <path stroke="inherit" fill="inherit" stroke-linecap="square" d="M 22.5 16l-2 5a2 2 0 0 1 -2 -1l3 -4z"/>
    <path stroke="inherit" fill="inherit" stroke-linecap="square" d="M 21 15.5l-1 -1h-12a2 2 0 0 0 0 2h12l1 -1z"/>
</symbol>
<symbol id="ic-duplicate" viewBox="0 0 32 32">
    <path stroke="inherit" fill="inherit" stroke-linecap="square" d="M21.5 22h-18v-18h18v16a 2 2 0 0 1 -2 0v-14h-14v14h15.5a 2 2 0 0 1 0 2z"/>
    <path stroke="inherit" fill="inherit" stroke-linecap="square" d="M27.5 28h-18v-18h18v16a 2 2 0 0 1 -2 0v-14h-14v14h15.5a 2 2 0 0 1 0 2z"/>
</symbol>
<symbol id="ic-loading1" width="48px" height="60px" viewBox="0 0 24 30" style="enable-background:new 0 0 50 50">
    <rect x="0" y="7.6416" width="4" height="14.7168" fill="inherit" opacity="0.2">
        <animate attributeName="opacity" attributeType="XML" values="0.2; 1; .2" begin="0s" dur="0.6s" repeatCount="indefinite"></animate>
        <animate attributeName="height" attributeType="XML" values="10; 20; 10" begin="0s" dur="0.6s" repeatCount="indefinite"></animate>
        <animate attributeName="y" attributeType="XML" values="10; 5; 10" begin="0s" dur="0.6s" repeatCount="indefinite"></animate>
    </rect>
    <rect x="8" y="5.1416" width="4" height="19.7168" fill="inherit" opacity="0.2">
        <animate attributeName="opacity" attributeType="XML" values="0.2; 1; .2" begin="0.15s" dur="0.6s" repeatCount="indefinite"></animate>
        <animate attributeName="height" attributeType="XML" values="10; 20; 10" begin="0.15s" dur="0.6s" repeatCount="indefinite"></animate>
        <animate attributeName="y" attributeType="XML" values="10; 5; 10" begin="0.15s" dur="0.6s" repeatCount="indefinite"></animate>
    </rect>
    <rect x="16" y="7.3584" width="4" height="15.2832" fill="inherit" opacity="0.2">
        <animate attributeName="opacity" attributeType="XML" values="0.2; 1; .2" begin="0.3s" dur="0.6s" repeatCount="indefinite"></animate>
        <animate attributeName="height" attributeType="XML" values="10; 20; 10" begin="0.3s" dur="0.6s" repeatCount="indefinite"></animate>
        <animate attributeName="y" attributeType="XML" values="10; 5; 10" begin="0.3s" dur="0.6s" repeatCount="indefinite"></animate>
    </rect>
</symbol>
</defs>
</svg>